<?xml version="1.0" encoding="UTF-8"?> <svg xmlns="http://www.w3.org/2000/svg" version="1" width="1200" height="1200" viewBox="0 0 900.000000 900.000000"><path d="M150 450v450.1l12.3-9.3c6.7-5 12.4-9.4 12.7-9.7.3-.3 2.8-2.2 5.5-4.1 2.8-1.9 5.5-3.9 6.2-4.5 2.1-1.7 3.6-2.9 11.3-8.5 4.1-3 7.7-5.7 8-6 .3-.3 2.1-1.7 4-3s3.7-2.7 4-3c.3-.3 12.9-9.7 28-21s27.7-20.7 28-21.1c.3-.3 2.8-2.1 5.5-3.9 2.8-1.9 5.5-3.9 6-4.5.6-.6 9.8-7.6 20.5-15.6 10.7-7.9 19.7-14.6 20-14.9.3-.3 2.1-1.7 4-3 1.9-1.4 4.2-3 5-3.7.8-.7 15.7-11.8 33-24.8 17.3-12.9 32.2-24.1 33-24.8.9-.7 3.8-2.8 6.5-4.7 2.8-1.9 5.5-3.9 6-4.5.6-.6 12.5-9.6 26.5-20.1 14-10.4 25.7-19.1 26-19.5.3-.3 2.8-2.1 5.5-3.9 2.8-1.9 5.5-3.9 6-4.5.6-.6 12.5-9.6 26.5-20.1 14-10.4 25.7-19.1 26-19.5.3-.3 2.8-2.1 5.5-3.9 2.8-1.9 5.5-3.9 6-4.5.6-.6 13.9-10.8 29.8-22.6 34.7-25.8 99.4-74.3 102.2-76.4 1.1-.9 6.6-5.1 12.3-9.3 5.6-4.2 17.4-13.1 26.2-19.7 8.7-6.6 21.4-16 28-21 12.6-9.3 15.1-11.5 13.1-11.5-.9 0-2.3-1-7.5-5.5-.7-.6-1.9-1.5-2.8-2-1.6-1-40-29.7-44.8-33.5-1.4-1.1-22.1-16.6-46-34.6-23.9-17.9-43.6-33-43.8-33.5-.2-.5-.9-.9-1.6-.9-.7 0-2.1-.8-3.2-1.8-1-.9-8.4-6.6-16.4-12.5-8-5.9-15.6-11.6-17-12.7-1.4-1.1-6.8-5.1-12-9-5.2-3.9-10.2-7.6-11-8.3-.8-.7-4.4-3.4-8-6-3.6-2.6-7.2-5.3-8-6-.9-.7-3.3-2.5-5.5-4.1-2.2-1.7-4.2-3.2-4.5-3.5-.3-.4-1.2-1.1-2.1-1.6-1.6-1-9.5-6.7-11.4-8.3-.5-.4-6.6-5-13.5-10.1-6.9-5.2-13-10-13.6-10.7-.6-.8-1.5-1.4-2.1-1.4-.5 0-1.8-.8-2.9-1.8-1-.9-8.4-6.6-16.4-12.5-8-5.9-15.6-11.6-17-12.7-1.4-1.1-22.1-16.6-46-34.6-23.9-17.9-43.6-33-43.8-33.5-.2-.5-.9-.9-1.6-.9-.7 0-2.1-.8-3.2-1.8-1-.9-14.5-11.1-29.9-22.6-15.4-11.5-28.5-21.4-29-22-.6-.6-2.1-1.7-3.4-2.4-1.3-.8-6.2-4.4-11-8.1-4.7-3.7-10.2-7.8-12.1-9.1-1.9-1.3-3.7-2.7-4-3-.3-.3-3.9-3-8-6s-7.7-5.7-8-6c-.3-.3-2.1-1.7-4-3s-3.7-2.7-4-3c-.3-.3-2.1-1.7-4-3s-3.7-2.7-4-3c-.3-.3-2.7-2.1-5.3-4-2.7-1.9-5.7-4.2-6.6-5-.9-.8-3.9-3.1-6.7-5-2.7-1.9-5.6-4-6.4-4.7-.8-.7-9.4-7.1-19-14.3-9.6-7.2-18.2-13.6-19-14.3-.9-.7-3.2-2.5-5.3-4L150-.1V450zm73.9-332.1c7.7 5.6 14.5 10.9 15.2 11.7.6.8 1.8 1.4 2.5 1.4.8 0 1.4.3 1.4.7 0 .5 1.7 1.9 3.8 3.3 2 1.4 3.9 2.7 4.2 3 .5.6 22.6 17 35.5 26.5 4.4 3.2 8.2 6.1 8.5 6.5.3.3 1.9 1.4 3.5 2.4 1.7 1.1 3.7 2.5 4.5 3.3.8.8 4.4 3.5 8 6.1 3.6 2.5 6.7 4.9 7 5.2.3.3 2.1 1.6 4 3 1.9 1.3 4 2.8 4.5 3.2.6.5 4.2 3.2 8 6 3.9 2.8 7.2 5.4 7.5 5.7.3.3 2.8 2.2 5.5 4 2.8 1.9 5.2 3.8 5.5 4.1.3.3 2.1 1.7 4 3s4 2.9 4.6 3.5c.6.5 2.1 1.7 3.4 2.5 2.6 1.8 45.8 33.9 49.5 36.8.6.4 2.6 1.8 4.5 3.2 1.9 1.3 3.7 2.7 4 3 .3.3 2.8 2.2 5.5 4.1 2.8 1.8 5.2 3.7 5.5 4 .3.3 5 3.9 10.5 7.9 5.5 4.1 10.2 7.7 10.5 8 .3.3 2.8 2.1 5.5 4 2.8 1.9 5.7 4 6.5 4.7.8.7 6.5 4.9 12.5 9.3 6.1 4.5 11.2 8.6 11.3 9.1.2.5.8.9 1.3.9.6 0 4.8 2.9 9.4 6.5 4.7 3.6 8.9 6.5 9.4 6.5s1.1.4 1.3.8c.2.5 3 2.8 6.3 5.3 3.3 2.4 6.2 4.6 6.5 4.9.3.3 2.2 1.6 4.2 3 2.1 1.4 3.8 2.8 3.8 3.2 0 .5.4.8 1 .8.5 0 1.8.7 2.7 1.5 4.2 3.4 24.5 18.5 24.9 18.5.4 0 1.2.6 4.7 3.5 1 .9 52.4 39.2 64.7 48.2 2.5 1.9 5.4 4 6.5 4.9 1.1.8 2.9 2.2 4 3 26.7 19.7 28.6 21.2 27 22.6-.9.7-2.5 2.1-3.6 3.1-1 .9-2.1 1.7-2.3 1.7-.2 0-10.5 7.5-22.7 16.6-28.6 21.3-31.2 23.2-32.4 24.2-.5.4-5.5 4.1-11 8.1-8.5 6.3-18.1 13.4-22 16.4-18 13.6-27.8 20.7-28.5 20.7-.5 0-1 .4-1.2.8-.1.5-3 2.8-6.3 5.3-3.3 2.4-6.2 4.6-6.5 4.9-.3.3-2.1 1.6-4 3-1.9 1.3-3.9 2.8-4.5 3.2-.5.5-14 10.5-30 22.3-15.9 11.8-29.4 21.8-30 22.3-6.8 5.4-29.8 22.2-30.5 22.2-.6 0-1 .4-1 .9s-1.7 2-3.7 3.2c-2.1 1.3-4.7 3.1-5.8 4.1-1.1.9-4.5 3.5-7.5 5.7s-6.6 4.9-8 6c-3.4 2.6-20.3 15.2-23.1 17.1-1.2.8-3.4 2.4-4.8 3.6-1.4 1.1-12.3 9.2-24.1 17.9-11.8 8.8-21.9 16.3-22.5 16.7-.5.5-10.7 8-22.5 16.8s-22 16.3-22.5 16.8c-.6.4-4.4 3.3-8.5 6.3-4.1 2.9-8.2 5.9-9 6.6-.8.7-4.9 3.7-9 6.7-4.1 3.1-7.9 5.9-8.5 6.4-.5.4-5.5 4.1-11 8.1-5.5 4.1-10.1 7.8-10.3 8.3-.2.4-.8.8-1.3.8s-3.1 1.7-5.7 3.8c-2.7 2-6.1 4.6-7.6 5.7-1.6 1.1-5 3.7-7.6 5.7l-4.8 3.7V451.2c0-190.1.2-346.1.5-346.5.2-.4 1.5 0 2.8 1 1.3 1 8.7 6.5 16.4 12.2z"></path><path d="M245.9 186.7c-.3 5.1 0 522.6.4 522.9.2.2 8.5-5.5 18.3-12.9 9.8-7.3 24.4-18.1 32.4-24 8-5.9 15.6-11.5 17-12.6 4.1-3.1 49.7-36.8 59.5-44 5-3.6 9.5-6.9 10-7.3.6-.5 2.8-2.2 5-3.8 2.2-1.6 4.5-3.3 5-3.7 1.8-1.4 11.9-8.9 20-14.8 4.4-3.3 8.2-6.3 8.3-6.7.2-.4 1-.8 1.8-.8s1.7-.7 2-1.5c.4-.8 1.2-1.5 1.9-1.5s1.5-.3 1.7-.8c.2-.4 3.2-2.8 6.8-5.4 3.6-2.6 7-5.1 7.5-5.5.6-.5 17.4-13 37.5-27.8 38.8-28.6 45-33.4 45-34.4 0-.3-1.9-1.9-4.3-3.6-2.3-1.6-4.6-3.3-5.2-3.8-.5-.4-3.9-2.9-7.5-5.5-3.6-2.5-6.7-4.9-7-5.2-.3-.3-2.1-1.7-4-3s-3.7-2.7-4-3c-.3-.3-2-1.6-3.9-2.9-3.1-2.2-3.7-2.3-5.8-1-3.4 2-46.7 31.3-47.3 32-.3.3-7.2 5-15.5 10.6-24.3 16.2-31 20.8-31.5 21.4-.3.3-2 1.4-3.7 2.4-1.8 1.1-3.3 2.3-3.3 2.7 0 .4-.4.8-.9.8-.7 0-34.9 22.7-38.6 25.7-.6.4-7.1 4.8-14.5 9.8-7.4 4.9-13.7 9.2-14 9.5-.3.3-3.1 2.2-6.2 4.3L303 597l-.1-3.7c-.7-33.5-.4-302.1.3-301.7.5.3 6 4 12.1 8.2 6.2 4.1 16.6 11.1 23.2 15.6 6.6 4.5 12.2 8.3 12.5 8.6.3.3 5.7 4 12 8.2 6.4 4.3 13.7 9.3 16.4 11.2l4.8 3.4-18.4 13c-10 7.2-18.9 13.7-19.7 14.4-.8.7-3.1 2.4-5.2 3.8s-10.3 7.2-18.4 13l-14.6 10.4 2.8 2.6c1.5 1.4 4.4 3.7 6.3 5 1.9 1.4 4.2 3 5 3.7.8.7 8.7 6.6 17.5 13.2s16.9 12.6 18 13.5c1.1.9 15.5 11.7 32 24.1 16.5 12.4 31.6 23.8 33.5 25.4l3.5 2.9 3-2.1c1.6-1.2 3.7-2.7 4.7-3.2 2-1.1 32.2-21.8 35.3-24.1 2.1-1.6 2-1.7-2.8-4.5-1-.6-2.6-1.7-3.5-2.4-.9-.8-8.2-6.3-16.2-12.2-8-5.9-14.6-11.1-14.8-11.5-.2-.5-.8-.8-1.4-.8-.6 0-3.2-1.8-5.8-4-2.6-2.2-5.1-4-5.4-4-.3 0-1.4-.8-2.5-1.8-1-.9-6.2-4.9-11.6-8.7-12.9-9.3-13.2-9.5-10.8-10.9 1.1-.6 5.3-3.6 9.4-6.7 4.1-3.1 16.4-12.2 27.4-20.3 11-8.1 20.7-15.3 21.5-15.9.9-.7 4.2-3.2 7.4-5.6l5.9-4.4-2.4-1.8c-1.3-1.1-7.7-5.8-14.1-10.5-6.4-4.7-12.2-9.2-12.9-10-.6-.8-1.7-1.4-2.4-1.4-.8 0-1.5-.3-1.7-.8-.1-.4-6.4-5.2-13.8-10.7-7.4-5.5-13.9-10.3-14.5-10.7-.9-.7-42-31.2-48.6-36.1-1.3-.9-11-8.1-21.6-16-10.5-7.8-20.1-14.9-21.3-15.7-3.2-2.3-20.2-14.9-22.7-16.8-1.2-.9-3.1-2.4-4.3-3.2-1.9-1.3-11.9-8.7-14.5-10.8-.5-.4-2.6-1.8-4.5-3.2-1.9-1.3-3.7-2.7-4-3-.3-.3-2.1-1.7-4-3-1.9-1.4-4.3-3.1-5.2-4-2.6-2.3-7.8-5.2-7.9-4.3z"></path></svg> 